<svg xmlns="http://www.w3.org/2000/svg" width="359" height="375" viewBox="0 0 359 375">
    <g fill="#F44337" fill-rule="evenodd">
        <path d="M356.48 96.959L283.121 3.92c-1.84-2.321-4.562-3.68-7.519-3.68H82.961c-2.961 0-5.68 1.359-7.52 3.68L2.078 96.959A9.376 9.376 0 0 0 0 102.881V364.4c0 5.281 4.32 9.602 9.602 9.602h339.277c5.281 0 9.601-4.321 9.601-9.602V102.881c.079-2.161-.64-4.243-2-5.922zm-26.082-2.078H188.879V19.439h82.082l59.437 75.442zM87.602 19.439h82.078v75.442H28.16l59.442-75.442zm-68.403 335.36h320.082V114.08H19.199v240.719z"/>
        <path d="M165.319 274.601l-29.2-29.199h109.36c5.281 0 9.601-4.321 9.601-9.602 0-5.277-4.32-9.597-9.601-9.597h-109.36l29.039-29.043a9.603 9.603 0 0 0 0-13.598 9.601 9.601 0 0 0-13.597 0l-45.442 45.437-.64.641c-.078.082-.078.16-.16.242-.161.16-.321.399-.399.559 0 .082-.082.082-.082.16-.156.238-.238.398-.398.641 0 .078 0 .078-.078.16-.161.238-.243.48-.321.719v.082c-.082.238-.242.558-.32.796v.082c-.082.239-.16.559-.242.801v.239c0 .242-.078.48-.078.718 0 .321-.082.641-.082.961 0 .321 0 .641.082.961 0 .238.078.481.078.719v.242c.082.32.16.559.242.801v.078c.078.238.16.559.32.801v.078c.078.242.239.48.321.723 0 0 0 .078.078.078.082.242.242.398.398.64 0 .078.082.078.082.16.16.161.238.399.399.559.082.082.082.16.16.16.16.242.402.481.64.641l45.602 45.601a9.61 9.61 0 0 0 13.598 0c3.761-3.601 3.761-9.679 0-13.441z"/>
    </g>
</svg>
