<svg xmlns="http://www.w3.org/2000/svg" width="120" height="35" viewBox="0 0 120 35">
    <g fill="#F44337" fill-rule="evenodd">
        <path d="M6.571 3.053h12.561c1.076 0 1.579.846 1.507 2.536l-1.13 5.289h-4.868l.726-3.463H10.31L8.104 17.993h7.101l-4.572 4.363H4.365c-1.022 0-1.47-.764-1.344-2.29L6.57 3.052zm15.601.028h12.884c1.04.309 1.399 1.1 1.076 2.372l-3.497 16.684h-4.734l1.83-8.751-5.515 2.563-1.856 8.86-4.169-2.726 1.748-8.37 10.84-5.316.27-1.336h-4.977l-.672 3.163-5.272 2.617 2.044-9.76zm17.457 12.54l-1.345 6.353-5.191 2.999 4.572-21.756 3.631 4.417-.538 2.617 2.34 1.881 2.556-1.472.672-3.217h-4.303l-3.74-4.39H50.55c.987.582 1.336 1.582 1.05 3l-1.507 7.142-3.443 1.718 2.61 2.044-1.13 5.426L43.449 25l1.129-5.425-4.95-3.953zm13.556-12.54H58l-3.174 15.076h5.407l3.846 4.008H49.178L53.185 3.08zm17.027 19.03h-4.734l3.927-18.785L74.838 0l-4.626 22.11zm5.487-19.03h4.411l-.78 3.707 4.411 4.853 1.776-8.56h4.411l-3.98 19.03h-4.466l.915-4.363-4.358-4.69-1.91 9.052h-4.41l3.98-19.03zm15.305-.028h10.517l3.04 4.362h-9.684l-.43 2.045h3.55l2.77 4.335h-7.235l-.86 4.09h5.54l3.04 4.252H86.996l4.008-19.084zm15.251.028h4.761L120 8.206l-2.394 11.505c-.18.818-.914 1.572-2.206 2.263h-6.832l.942-4.526h3.792l1.4-6.57-4.385-2.672-3.443 16.44h-.189l-4.25-3.3 3.82-18.265zM4.616 28.946c.398.185.725.437.982.757l-.982 1.095a1.92 1.92 0 0 0-.606-.586 1.405 1.405 0 0 0-.736-.218c-.311 0-.6.084-.868.252a1.798 1.798 0 0 0-.634.69c-.156.29-.233.61-.233.958 0 .296.06.564.18.804.12.24.286.428.499.565.213.137.453.205.72.205.235 0 .487-.063.757-.188.27-.126.517-.297.74-.513l.778.984c-.343.342-.739.614-1.186.817a3.147 3.147 0 0 1-1.302.304c-.529 0-1-.123-1.416-.368a2.542 2.542 0 0 1-.965-1.014A3.058 3.058 0 0 1 0 32.03c0-.627.15-1.197.45-1.71.3-.514.71-.918 1.228-1.212a3.393 3.393 0 0 1 1.702-.44c.426 0 .838.092 1.236.278zm1.637 5.46c-.273-.277-.41-.641-.41-1.092 0-.171.014-.32.041-.445l.524-2.738h1.457l-.483 2.516a1.03 1.03 0 0 0-.024.222c0 .206.057.367.171.484.115.117.273.175.475.175a.908.908 0 0 0 .659-.29 1.42 1.42 0 0 0 .38-.754l.45-2.353h1.457l-.875 4.63H8.618l.114-.617c-.354.45-.813.676-1.374.676-.464 0-.833-.138-1.105-.415zm5.667.179a2.906 2.906 0 0 1-1.002-.646l.605-.907c.23.217.483.39.761.522.279.131.538.197.778.197.153 0 .271-.03.356-.09a.292.292 0 0 0 .127-.253c0-.091-.052-.17-.156-.235a3.354 3.354 0 0 0-.49-.235 6.458 6.458 0 0 1-.656-.308 1.378 1.378 0 0 1-.45-.407 1.06 1.06 0 0 1-.188-.637c0-.297.074-.56.221-.788.147-.228.353-.405.618-.53.265-.126.569-.189.912-.189.366 0 .73.067 1.093.202.363.134.689.318.978.552l-.638.907a4 4 0 0 0-.75-.437c-.247-.108-.459-.162-.633-.162-.12 0-.221.03-.303.09a.271.271 0 0 0-.123.226c0 .091.053.171.16.24.106.068.271.148.495.24.267.114.49.22.667.32.177.1.33.237.458.411s.192.39.192.646c0 .297-.076.56-.229.787a1.503 1.503 0 0 1-.638.531 2.209 2.209 0 0 1-.933.188c-.426 0-.836-.078-1.232-.235zm5.512-1.416a.799.799 0 0 0-.016.18c0 .096.02.163.061.2.041.038.105.053.192.048.164 0 .369-.06.614-.18l.156 1.13c-.17.09-.362.16-.577.21a2.884 2.884 0 0 1-.634.072c-.399 0-.715-.107-.95-.321-.234-.214-.352-.506-.352-.877 0-.12.011-.234.033-.342l.368-1.926h-.605l.188-1.01h.614l.245-1.283h1.449l-.246 1.283h1.146l-.188 1.01h-1.154l-.344 1.806zm5.582-2.824c.333.177.589.425.769.744.18.32.27.693.27 1.121 0 .508-.113.959-.34 1.352-.226.394-.541.7-.945.92a2.83 2.83 0 0 1-1.375.33c-.447 0-.837-.089-1.17-.266a1.862 1.862 0 0 1-.77-.748 2.27 2.27 0 0 1-.27-1.126c0-.507.114-.958.34-1.352a2.36 2.36 0 0 1 .941-.915c.401-.217.861-.326 1.38-.326.447 0 .837.089 1.17.266zm-2.055 1.326c-.201.24-.302.55-.302.933 0 .302.076.546.229.732a.755.755 0 0 0 .614.278c.31 0 .567-.12.769-.36.202-.24.303-.55.303-.932 0-.303-.077-.547-.23-.732a.755.755 0 0 0-.613-.278.962.962 0 0 0-.77.36zm11.196-1.185c.273.277.41.64.41 1.091 0 .165-.014.314-.041.445L32 34.76h-1.457l.475-2.516c.016-.085.024-.162.024-.23 0-.2-.057-.359-.172-.475-.114-.117-.272-.176-.474-.176-.24 0-.457.097-.65.291a1.42 1.42 0 0 0-.381.753l-.45 2.353h-1.457l.483-2.516c.016-.08.024-.154.024-.222 0-.205-.057-.367-.172-.483-.114-.117-.273-.176-.474-.176a.908.908 0 0 0-.66.291 1.42 1.42 0 0 0-.38.753l-.45 2.353h-1.457l.876-4.63h1.457l-.115.617c.355-.45.813-.676 1.375-.676.371 0 .683.09.937.27.254.18.424.426.512.74.436-.674.982-1.01 1.637-1.01.463 0 .832.138 1.104.415zm7.767-1.284c.338.294.507.71.507 1.245 0 .531-.111.996-.335 1.395-.224.4-.546.71-.966.929-.42.22-.916.33-1.49.33h-1.014l-.32 1.66h-1.497l1.146-6h2.512c.633 0 1.119.148 1.457.441zm-1.26 2.345c.207-.202.31-.478.31-.826 0-.228-.069-.403-.208-.526-.14-.123-.34-.184-.602-.184h-.949l-.352 1.84h.95c.36 0 .643-.101.85-.304zm2.717 3.017a1.696 1.696 0 0 1-.61-.72 2.47 2.47 0 0 1-.217-1.06c0-.502.103-.959.307-1.37.205-.41.486-.736.843-.975.357-.24.752-.36 1.183-.36.665 0 1.124.274 1.375.822l.147-.77h1.449l-.876 4.63h-1.457l.106-.548c-.387.405-.84.607-1.358.607-.333 0-.63-.085-.892-.256zm2.021-1.096c.175-.12.313-.282.414-.488.1-.205.151-.43.151-.676 0-.29-.075-.523-.225-.697a.754.754 0 0 0-.602-.261.945.945 0 0 0-.56.184 1.29 1.29 0 0 0-.41.492c-.1.205-.15.428-.15.667 0 .291.074.524.224.698.15.174.348.26.594.26.201 0 .39-.059.564-.179zm6.425-3.397l-.172 1.395a1.982 1.982 0 0 0-.213-.009c-.36 0-.675.1-.945.3-.27.2-.443.456-.52.77l-.425 2.233h-1.457l.884-4.63h1.457l-.14.72c.399-.52.909-.78 1.53-.78zm1.792 3.098a.799.799 0 0 0-.016.18c0 .096.02.163.061.2.041.038.105.053.193.048.163 0 .368-.06.613-.18l.156 1.13c-.17.09-.362.16-.577.21a2.884 2.884 0 0 1-.634.072c-.399 0-.715-.107-.95-.321-.234-.214-.352-.506-.352-.877 0-.12.011-.234.033-.342l.368-1.926h-.605l.188-1.01h.614l.245-1.283h1.449l-.246 1.283h1.146l-.188 1.01H51.96l-.344 1.806zm2.394 1.416a2.906 2.906 0 0 1-1.003-.646l.606-.907c.23.217.483.39.761.522.278.131.538.197.778.197.152 0 .271-.03.356-.09a.292.292 0 0 0 .127-.253c0-.091-.052-.17-.156-.235a3.354 3.354 0 0 0-.491-.235 6.458 6.458 0 0 1-.655-.308 1.378 1.378 0 0 1-.45-.407 1.06 1.06 0 0 1-.188-.637c0-.297.074-.56.22-.788.148-.228.354-.405.619-.53.264-.126.569-.189.912-.189.366 0 .73.067 1.093.202.363.134.689.318.978.552l-.638.907a4 4 0 0 0-.75-.437c-.248-.108-.459-.162-.634-.162-.12 0-.22.03-.302.09a.271.271 0 0 0-.123.226c0 .091.053.171.16.24.106.068.27.148.495.24.267.114.49.22.667.32.177.1.33.237.458.411s.192.39.192.646c0 .297-.076.56-.229.787a1.503 1.503 0 0 1-.638.531 2.209 2.209 0 0 1-.933.188c-.426 0-.836-.078-1.232-.235zm9.743.415l-.67-.787c-.53.41-1.09.616-1.679.616-.349 0-.66-.067-.933-.201a1.547 1.547 0 0 1-.638-.56 1.495 1.495 0 0 1-.23-.822c0-.411.12-.758.357-1.04.237-.282.566-.543.986-.783-.202-.37-.303-.719-.303-1.044 0-.513.163-.923.487-1.228.325-.305.76-.458 1.306-.458.458 0 .828.116 1.109.347.28.23.421.535.421.911 0 .428-.136.776-.41 1.044-.272.268-.654.522-1.145.762.191.262.426.559.704.89a5.14 5.14 0 0 0 .532-1.002l.843.788a5.522 5.522 0 0 1-.663 1.052l.72.813-.794.702zm-1.85-4.073c.295-.16.522-.313.68-.458a.717.717 0 0 0 .254-.492c.01-.126-.018-.226-.086-.3-.069-.074-.168-.111-.3-.111a.602.602 0 0 0-.486.235.883.883 0 0 0-.192.578c0 .165.043.348.13.548zm.5 2.473a29.18 29.18 0 0 1-.925-1.164 1.792 1.792 0 0 0-.507.41.781.781 0 0 0-.18.506c0 .176.062.32.188.432.125.111.289.167.49.167.306 0 .617-.117.934-.351zm8.691 1.36l-.22-1.06h-2.489l-.564 1.06h-1.53l3.412-5.998h1.539l1.456 5.998h-1.604zm-2.07-2.259h1.604l-.45-2.173-1.154 2.173zm5.254 2.05a1.788 1.788 0 0 1-.72-.74 2.324 2.324 0 0 1-.254-1.104c0-.514.108-.969.323-1.365.216-.397.515-.706.896-.929a2.553 2.553 0 0 1 1.31-.334c.442 0 .825.096 1.15.287.324.191.566.46.724.809l-1.113.642a.885.885 0 0 0-.331-.356.935.935 0 0 0-.487-.124c-.29 0-.53.117-.72.351-.192.234-.287.537-.287.907 0 .297.072.535.217.715.144.18.337.27.577.27.404 0 .71-.175.916-.523l1.007.65a2.109 2.109 0 0 1-.86.818 2.68 2.68 0 0 1-1.26.287c-.414 0-.777-.087-1.088-.261zm4.747 0a1.788 1.788 0 0 1-.72-.74 2.324 2.324 0 0 1-.254-1.104c0-.514.108-.969.323-1.365.216-.397.514-.706.896-.929a2.553 2.553 0 0 1 1.31-.334c.442 0 .825.096 1.15.287.324.191.566.46.724.809l-1.113.642a.885.885 0 0 0-.332-.356.935.935 0 0 0-.487-.124c-.289 0-.529.117-.72.351-.19.234-.286.537-.286.907 0 .297.072.535.217.715.144.18.337.27.577.27.403 0 .709-.175.916-.523l1.007.65a2.109 2.109 0 0 1-.86.818 2.68 2.68 0 0 1-1.26.287c-.414 0-.777-.087-1.088-.261zm7.41-4.206c.325.17.575.412.75.723.174.31.261.674.261 1.09 0 .195-.027.426-.082.694h-3.142c.027.263.122.465.286.608.164.142.385.214.663.214.366 0 .704-.129 1.015-.385l.728.83c-.49.467-1.091.701-1.8.701-.47 0-.879-.085-1.228-.256a1.888 1.888 0 0 1-.81-.736 2.126 2.126 0 0 1-.287-1.113c0-.496.108-.944.324-1.343.215-.4.514-.713.896-.942.382-.228.81-.342 1.285-.342.436 0 .817.086 1.141.257zm-.364 1.532c0-.217-.062-.39-.188-.518-.125-.129-.295-.193-.507-.193a.93.93 0 0 0-.622.24c-.186.16-.328.37-.426.633h1.735c.006-.034.008-.088.008-.162zm2.402 2.708a2.906 2.906 0 0 1-1.002-.646l.605-.907c.23.217.483.39.761.522.279.131.538.197.778.197.153 0 .271-.03.356-.09a.292.292 0 0 0 .127-.253c0-.091-.052-.17-.156-.235a3.354 3.354 0 0 0-.49-.235 6.458 6.458 0 0 1-.655-.308 1.378 1.378 0 0 1-.45-.407 1.06 1.06 0 0 1-.189-.637c0-.297.074-.56.221-.788.147-.228.353-.405.618-.53.265-.126.569-.189.913-.189.365 0 .73.067 1.092.202.363.134.689.318.978.552l-.638.907a4 4 0 0 0-.749-.437c-.248-.108-.46-.162-.634-.162-.12 0-.221.03-.303.09a.271.271 0 0 0-.123.226c0 .091.053.171.16.24.106.068.271.148.495.24.267.114.49.22.667.32.177.1.33.237.458.411s.193.39.193.646c0 .297-.077.56-.23.787a1.503 1.503 0 0 1-.638.531 2.209 2.209 0 0 1-.933.188c-.426 0-.836-.078-1.232-.235zm4.289 0a2.906 2.906 0 0 1-1.003-.646l.606-.907c.229.217.483.39.761.522.278.131.537.197.777.197.153 0 .272-.03.356-.09a.292.292 0 0 0 .127-.253c0-.091-.052-.17-.155-.235a3.354 3.354 0 0 0-.491-.235 6.458 6.458 0 0 1-.655-.308 1.378 1.378 0 0 1-.45-.407 1.06 1.06 0 0 1-.188-.637c0-.297.073-.56.22-.788.148-.228.354-.405.619-.53.264-.126.568-.189.912-.189.366 0 .73.067 1.093.202.362.134.688.318.978.552l-.639.907a4 4 0 0 0-.749-.437c-.248-.108-.46-.162-.634-.162-.12 0-.22.03-.303.09a.271.271 0 0 0-.122.226c0 .091.053.171.16.24.106.068.27.148.494.24.268.114.49.22.667.32.178.1.33.237.459.411.128.174.192.39.192.646 0 .297-.076.56-.23.787a1.503 1.503 0 0 1-.638.531 2.209 2.209 0 0 1-.933.188c-.425 0-.836-.078-1.231-.235zm7.476-4.24c.333.177.59.425.77.744.18.32.27.693.27 1.121 0 .508-.114.959-.34 1.352-.227.394-.542.7-.946.92a2.83 2.83 0 0 1-1.375.33c-.447 0-.837-.089-1.17-.266a1.862 1.862 0 0 1-.77-.748 2.27 2.27 0 0 1-.27-1.126c0-.507.114-.958.34-1.352a2.36 2.36 0 0 1 .942-.915c.4-.217.86-.326 1.379-.326.447 0 .837.089 1.17.266zm-2.054 1.326c-.202.24-.303.55-.303.933 0 .302.076.546.23.732a.755.755 0 0 0 .613.278c.31 0 .567-.12.77-.36.201-.24.302-.55.302-.932 0-.303-.076-.547-.23-.732a.755.755 0 0 0-.613-.278.962.962 0 0 0-.77.36zm7.136-1.6l-.172 1.395a1.982 1.982 0 0 0-.212-.009c-.36 0-.676.1-.946.3-.27.2-.443.456-.52.77l-.425 2.233h-1.457l.884-4.63h1.457l-.14.72c.4-.52.91-.78 1.531-.78zm2.17.06l-.877 4.63h-1.456l.883-4.63h1.45zm.138-1.947a.68.68 0 0 1 .172.483.932.932 0 0 1-.274.68.901.901 0 0 1-.667.279.597.597 0 0 1-.458-.184.68.68 0 0 1-.172-.484c0-.268.091-.494.274-.68a.892.892 0 0 1 .659-.278c.196 0 .352.061.466.184zm3.826 2.16c.325.172.575.413.75.724.174.31.261.674.261 1.09 0 .195-.027.426-.082.694h-3.143c.028.263.123.465.287.608.164.142.385.214.663.214.365 0 .704-.129 1.015-.385l.728.83c-.491.467-1.091.701-1.8.701-.47 0-.879-.085-1.228-.256a1.888 1.888 0 0 1-.81-.736 2.126 2.126 0 0 1-.287-1.113c0-.496.108-.944.324-1.343.215-.4.514-.713.896-.942.382-.228.81-.342 1.285-.342.436 0 .817.086 1.141.257zm-.364 1.533c0-.217-.063-.39-.188-.518-.126-.129-.295-.193-.508-.193a.93.93 0 0 0-.622.24c-.185.16-.327.37-.425.633h1.735c.005-.034.008-.088.008-.162zm2.402 2.708a2.906 2.906 0 0 1-1.002-.646l.605-.907c.23.217.483.39.761.522.279.131.538.197.778.197.153 0 .271-.03.356-.09a.292.292 0 0 0 .127-.253c0-.091-.052-.17-.156-.235a3.354 3.354 0 0 0-.49-.235 6.458 6.458 0 0 1-.656-.308 1.378 1.378 0 0 1-.45-.407 1.06 1.06 0 0 1-.188-.637c0-.297.074-.56.221-.788.147-.228.353-.405.618-.53.265-.126.569-.189.912-.189.366 0 .73.067 1.093.202.363.134.689.318.978.552l-.638.907a4 4 0 0 0-.75-.437c-.247-.108-.459-.162-.633-.162-.12 0-.221.03-.303.09a.271.271 0 0 0-.123.226c0 .091.053.171.16.24.106.068.271.148.495.24.267.114.49.22.667.32.177.1.33.237.458.411s.192.39.192.646c0 .297-.076.56-.229.787a1.503 1.503 0 0 1-.638.531 2.209 2.209 0 0 1-.933.188c-.426 0-.836-.078-1.232-.235z"/>
    </g>
</svg>
